<?xml version="1.0" standalone="no"?><!DOCTYPE svg PUBLIC "-//W3C//DTD SVG 1.1//EN" "http://www.w3.org/Graphics/SVG/1.1/DTD/svg11.dtd"><svg t="1772878033000" class="icon" viewBox="0 0 1024 1024" version="1.1" xmlns="http://www.w3.org/2000/svg" p-id="4744" xmlns:xlink="http://www.w3.org/1999/xlink" width="200" height="200"><path d="M0 0h1024v1024H0z" fill="#D8D8D8" opacity=".01" p-id="4745"></path><path d="M170.666667 170.666667h682.666666v682.666666H170.666667z" fill="#D8D8D8" opacity=".01" p-id="4746"></path><path d="M554.666667 181.333333a118.784 118.784 0 0 1 24.106666 2.517334l5.674667 1.28 7.68 2.346666 5.504 1.962667 7.082667 3.072 6.229333 3.2 8.277333 4.949333 5.290667 3.712 7.125333 5.717334 6.741334 6.4 2.816 2.944 6.229333 7.296 4.053333 5.546666 4.906667 7.850667 3.242667 6.058667 2.304 4.821333 1.92 4.522667 0.682666 1.834666c1.92 5.12 3.498667 10.453333 4.693334 15.872l0.853333 4.266667A118.485333 118.485333 0 0 1 672 298.666667v53.333333H725.333333l5.205334 0.128 9.557333 0.768a116.736 116.736 0 0 1 19.754667 4.266667l5.248 1.749333 10.24 4.266667 6.954666 3.584 7.68 4.608 7.253334 5.205333 7.338666 6.229333 4.522667 4.352 4.821333 5.205334 4.266667 5.205333 5.12 7.168 2.858667 4.565333 2.773333 4.906667 2.986667 5.973333 2.005333 4.650667 1.28 3.114667c1.92 5.162667 3.498667 10.496 4.693333 15.957333l0.896 4.352c1.28 6.826667 1.877333 13.866667 1.877334 21.077333v85.333334l-0.213334 7.168a116.650667 116.650667 0 0 1-5.205333 28.16l-1.493333 4.522666-2.56 6.4-1.28 2.858667c-1.706667 3.754667-3.669333 7.424-5.76 10.922667l-2.816 4.522666-3.712 5.290667-5.632 6.997333-6.442667 6.826667-2.986667 2.858667-7.296 6.229333-5.546666 4.053333-7.850667 4.906667-6.186667 3.328-7.509333 3.413333-10.325333 3.712-5.077334 1.450667-8.277333 1.792a118.826667 118.826667 0 0 1-21.162667 1.92h-53.333333V725.333333l-0.128 5.205334-0.768 9.557333c-0.426667 3.242667-0.981333 6.4-1.664 9.557333l-1.152 5.12-1.834667 6.357334-1.450666 4.266666-4.181334 9.941334-3.584 6.954666-4.608 7.68-5.205333 7.253334-6.229333 7.338666-4.352 4.522667-5.205334 4.821333-5.205333 4.266667-7.253333 5.12-6.314667 3.968-5.845333 3.114667-7.850667 3.541333-9.173333 3.328-5.546667 1.621333-8.704 1.92c-2.261333 0.426667-4.608 0.768-6.912 1.024l-6.997333 0.64-7.168 0.213334h-85.333334c-4.778667 0-9.514667-0.256-14.165333-0.853334l-9.941333-1.664-5.674667-1.28-7.68-2.346666-5.504-1.962667-7.082667-3.072-6.229333-3.2-8.277333-4.949333-5.290667-3.712-7.125333-5.717334-6.741334-6.4-2.816-2.944-6.229333-7.296-4.053333-5.546666-4.906667-7.850667-3.328-6.186667-2.730667-5.973333-2.56-6.314667-1.834666-5.546666a117.077333 117.077333 0 0 1-2.602667-10.197334l-0.938667-4.736-0.981333-7.253333-0.170667-1.962667A119.296 119.296 0 0 1 352 725.333333v-53.333333H298.666667a119.893333 119.893333 0 0 1-10.325334-0.426667l-5.461333-0.597333-6.954667-1.194667-6.698666-1.493333-8.789334-2.645333-6.613333-2.517334-7.509333-3.413333-6.186667-3.328-6.101333-3.754667-7.253334-5.205333-7.338666-6.229333-4.522667-4.352-6.272-6.912-4.266667-5.418667-3.712-5.290667-2.816-4.565333-2.986666-5.333333-4.053334-8.405334-0.853333-2.005333a116.437333 116.437333 0 0 1-8.405333-37.077333L181.333333 554.666667v-85.333334c0-4.778667 0.256-9.514667 0.853334-14.165333l1.152-7.466667 0.725333-3.797333 2.133333-8.106667 3.242667-9.386666 3.072-7.125334 2.56-5.077333 4.437333-7.594667 3.498667-5.248 4.266667-5.674666 4.48-5.205334 6.144-6.272 6.997333-6.144 7.381333-5.546666 7.850667-4.906667 6.144-3.328 7.552-3.413333 10.325333-3.712c3.328-1.024 6.741333-1.877333 10.197334-2.602667l4.736-0.938667 7.253333-0.981333 1.962667-0.170667c3.413333-0.298667 6.869333-0.469333 10.368-0.469333h53.333333V298.666667a119.04 119.04 0 0 1 1.92-21.12l0.853333-4.266667 2.048-8.106667 3.328-9.642666 1.749334-4.181334 4.864-9.642666 4.608-7.68 5.205333-7.253334 6.229333-7.338666 4.352-4.522667 5.205334-4.821333 5.205333-4.266667 7.253333-5.12 6.314667-3.968 5.802667-3.114667 7.893333-3.541333 9.173333-3.328A116.736 116.736 0 0 1 469.333333 181.333333h85.333334z m-85.333334 64c-29.44 0-53.333333 23.893333-53.333333 53.333334v85.333333a32 32 0 0 1-27.648 31.701333L384 416H298.666667c-29.44 0-53.333333 23.893333-53.333334 53.333333v85.333334c0 29.44 23.893333 53.333333 53.333334 53.333333h85.333333a32 32 0 0 1 32 32v85.333333c0 29.44 23.893333 53.333333 53.333333 53.333334h85.333334c29.44 0 53.333333-23.893333 53.333333-53.333334v-85.333333a32 32 0 0 1 32-32h85.333333c29.44 0 53.333333-23.893333 53.333334-53.333333v-85.333334c0-29.44-23.893333-53.333333-53.333334-53.333333h-85.333333l-4.352-0.298667A32 32 0 0 1 608 384V298.666667c0-29.44-23.893333-53.333333-53.333333-53.333334h-85.333334z" fill="#000000" p-id="4747"></path></svg>